HIERARCHY
ROOT Hips
{
	OFFSET 0.000000 0.000000 0.000000
	CHANNELS 6 Xposition Yposition Zposition Zrotation Yrotation Xrotation 
	JOINT LHipJoint
	{
		OFFSET 0.000000 0.000000 0.000000
		CHANNELS 3 Zrotation Yrotation Xrotation
		JOINT LeftUpLeg
		{
			OFFSET 1.363060 -1.794630 0.839290
			CHANNELS 3 Zrotation Yrotation Xrotation
			JOINT LeftLeg
			{
				OFFSET 2.448110 -6.726130 0.000000
				CHANNELS 3 Zrotation Yrotation Xrotation
				JOINT LeftFoot
				{
					OFFSET 2.562200 -7.039590 0.000000
					CHANNELS 3 Zrotation Yrotation Xrotation
					JOINT LeftToeBase
					{
						OFFSET 0.157640 -0.433110 2.322550
						CHANNELS 3 Zrotation Yrotation Xrotation
						End Site
						{
							OFFSET 0.000000 0.000000 0.000000
						}
					}
				}
			}
		}
	}
	JOINT RHipJoint
	{
		OFFSET 0.000000 0.000000 0.000000
		CHANNELS 3 Zrotation Yrotation Xrotation
		JOINT RightUpLeg
		{
			OFFSET -1.305520 -1.794630 0.839290
			CHANNELS 3 Zrotation Yrotation Xrotation
			JOINT RightLeg
			{
				OFFSET -2.542530 -6.985550 0.000000
				CHANNELS 3 Zrotation Yrotation Xrotation
				JOINT RightFoot
				{
					OFFSET -2.568260 -7.056230 0.000000
					CHANNELS 3 Zrotation Yrotation Xrotation
					JOINT RightToeBase
					{
						OFFSET -0.164730 -0.452590 2.363150
						CHANNELS 3 Zrotation Yrotation Xrotation
						End Site
						{
							OFFSET 0.000000 0.000000 0.000000
						}
					}
				}
			}
		}
	}
	JOINT LowerBack
	{
		OFFSET 0.000000 0.000000 0.000000
		CHANNELS 3 Zrotation Yrotation Xrotation
		JOINT Spine
		{
			OFFSET 0.028270 2.035590 -0.193380
			CHANNELS 3 Zrotation Yrotation Xrotation
			JOINT Spine1
			{
				OFFSET 0.056720 2.048850 -0.042750
				CHANNELS 3 Zrotation Yrotation Xrotation
				JOINT Neck
				{
					OFFSET 0.000000 0.000000 0.000000
					CHANNELS 3 Zrotation Yrotation Xrotation
					JOINT Neck1
					{
						OFFSET -0.054170 1.746240 0.172020
						CHANNELS 3 Zrotation Yrotation Xrotation
						JOINT Head
						{
							OFFSET 0.104070 1.761360 -0.123970
							CHANNELS 3 Zrotation Yrotation Xrotation
							End Site
							{
								OFFSET 0.000000 0.000000 0.000000
							}
						}
					}
				}
				JOINT LeftShoulder
				{
					OFFSET 0.000000 0.000000 0.000000
					CHANNELS 3 Zrotation Yrotation Xrotation
					JOINT LeftArm
					{
						OFFSET 3.362410 1.200890 -0.311210
						CHANNELS 3 Zrotation Yrotation Xrotation
						JOINT LeftForeArm
						{
							OFFSET 4.983000 -0.000000 -0.000000
							CHANNELS 3 Zrotation Yrotation Xrotation
							JOINT LeftHand
							{
								OFFSET 3.483560 -0.000000 -0.000000
								CHANNELS 3 Zrotation Yrotation Xrotation
								JOINT LeftFingerBase
								{
									OFFSET 0.000000 0.000000 0.000000
									CHANNELS 3 Zrotation Yrotation Xrotation
									JOINT LeftHandIndex1
									{
										OFFSET 0.715260 -0.000000 -0.000000
										CHANNELS 3 Zrotation Yrotation Xrotation
										End Site
										{
											OFFSET 0.000000 0.000000 0.000000
										}
									}
								}
								JOINT LThumb
								{
									OFFSET 0.000000 0.000000 0.000000
									CHANNELS 3 Zrotation Yrotation Xrotation
									End Site
									{
										OFFSET 0.000000 0.000000 0.000000
									}
								}
							}
						}
					}
				}
				JOINT RightShoulder
				{
					OFFSET 0.000000 0.000000 0.000000
					CHANNELS 3 Zrotation Yrotation Xrotation
					JOINT RightArm
					{
						OFFSET -3.136600 1.374050 -0.404650
						CHANNELS 3 Zrotation Yrotation Xrotation
						JOINT RightForeArm
						{
							OFFSET -5.241900 -0.000000 -0.000000
							CHANNELS 3 Zrotation Yrotation Xrotation
							JOINT RightHand
							{
								OFFSET -3.444170 -0.000000 -0.000000
								CHANNELS 3 Zrotation Yrotation Xrotation
								JOINT RightFingerBase
								{
									OFFSET 0.000000 0.000000 0.000000
									CHANNELS 3 Zrotation Yrotation Xrotation
									JOINT RightHandIndex1
									{
										OFFSET -0.622530 -0.000000 -0.000000
										CHANNELS 3 Zrotation Yrotation Xrotation
										End Site
										{
											OFFSET 0.000000 0.000000 0.000000
										}
									}
								}
								JOINT RThumb
								{
									OFFSET 0.000000 0.000000 0.000000
									CHANNELS 3 Zrotation Yrotation Xrotation
									End Site
									{
										OFFSET 0.000000 0.000000 0.000000
									}
								}
							}
						}
					}
				}
			}
		}
	}
}
MOTION
Frames: 8
Frame Time: 0.008333
2.834794 16.728921 4.040801 7.449413 35.700765 24.713999 -10.832208 2.481149 -4.775837 -4.591636 17.551285 -13.291042 -1.255317 2.044698 33.774292 0.816565 2.910422 13.884029 0.744900 0.000001 -89.071700 9.301222 1.080865 0.139516 11.599593 -0.182173 -46.518607 1.953196 -1.334633 25.055722 -3.297114 -11.775002 -9.797458 -0.737000 -0.000000 -1.079500 3.682361 -1.812561 9.015768 -0.280736 -1.624203 -0.101006 -6.534288 -1.626218 2.308564 8.642269 3.341529 5.745709 -4.794678 -0.400695 3.023913 0.000000 0.000000 0.000000 -1.534491 -7.856146 2.422515 -17.164192 -35.523795 -12.362908 -1.773122 -33.190861 -0.033331 7.376649 -3.224700 -0.232136 -0.125610 0.322412 -0.000000 0.000000 0.000000 0.000000 0.000000 0.000000 0.000000 19.901865 -1.793275 0.070758 43.729072 17.207317 -13.415168 2.060137 32.485045 0.003084 -2.852369 9.648670 -0.247756 0.050105 -0.118148 0.000000 0.000000 0.000000 0.000000 0.000000 0.000000 0.000000 
2.888433 16.706317 4.177686 7.239942 35.540691 24.495774 -11.008214 2.439774 -4.687207 -3.765257 17.405115 -13.620128 -1.121818 2.141447 35.211392 0.828377 1.819281 15.556366 0.358700 -0.000001 -89.925500 9.193821 1.015225 -0.068588 12.135042 -0.352526 -46.746769 1.983693 -1.560460 27.107362 -3.251043 -11.415554 -10.703676 -0.474200 -0.000000 -0.194900 4.146582 -1.785354 9.151970 -0.186095 -1.601827 -0.086373 -6.559355 -1.609011 2.279584 8.708531 3.569827 5.811633 -4.811127 -0.401036 3.041290 0.000000 0.000000 0.000000 -1.730161 -7.752053 2.411325 -17.937610 -35.402676 -11.694837 -1.789760 -33.789947 -0.033769 7.549404 -3.307599 -0.243023 -0.127717 0.320947 -0.000000 0.000000 0.000000 0.000000 0.000000 0.000000 0.000000 20.017868 -1.603923 0.090207 43.727971 16.957915 -14.130891 2.071717 31.933296 0.002854 -3.103094 9.655615 -0.269460 0.051461 -0.117129 -0.000000 0.000000 0.000000 0.000000 0.000000 0.000000 0.000000 
2.938994 16.688243 4.313075 6.990915 35.382882 24.253052 -11.172984 2.382330 -4.585280 -2.911070 17.131684 -13.982295 -0.989527 2.234618 36.685391 0.854985 0.623976 17.313221 -0.126500 0.000000 -89.976600 9.082637 0.951135 -0.292774 12.724139 -0.543667 -46.830356 2.028443 -1.750469 28.929334 -3.208725 -11.031724 -11.763976 179.815100 -0.000000 -0.625000 4.608300 -1.758246 9.307006 -0.091022 -1.578227 -0.070117 -6.578277 -1.591055 2.241825 8.817362 3.856946 5.914011 -4.813603 -0.400835 3.068447 0.000000 0.000000 0.000000 -1.882317 -7.692096 2.393327 -18.869648 -35.213659 -11.004171 -1.805164 -34.430372 -0.034307 7.749883 -3.372605 -0.253810 -0.130001 0.318974 -0.000000 0.000000 0.000000 0.000000 0.000000 0.000000 0.000000 20.103605 -1.355785 0.110733 43.825726 16.745786 -14.925077 2.083535 31.236462 0.002559 -3.393214 9.608707 -0.292965 0.053013 -0.115765 -0.000000 0.000000 0.000000 0.000000 0.000000 0.000000 0.000000 
2.986214 16.674331 4.447392 6.721110 35.225580 24.003861 -11.318354 2.312276 -4.470439 -2.064231 16.722636 -14.372678 -0.864004 2.322476 38.174667 0.894883 -0.613011 19.052757 -0.691800 0.000000 -89.137700 8.972800 0.889597 -0.526139 13.342123 -0.754196 -46.768973 2.086003 -1.902607 30.483370 -3.172389 -10.638158 -12.924068 -179.885900 0.000000 -1.372500 5.046781 -1.732126 9.472496 -0.000050 -1.554217 -0.050201 -6.591344 -1.572535 2.207939 8.974194 4.172569 6.036646 -4.802805 -0.400033 3.100794 0.000000 0.000000 0.000000 -2.019782 -7.622410 2.367194 -19.882730 -35.050421 -10.256108 -1.820533 -35.049160 -0.034867 7.964402 -3.429598 -0.264697 -0.132547 0.316719 -0.000000 0.000000 0.000000 0.000000 0.000000 0.000000 0.000000 20.170319 -1.078165 0.127773 44.021404 16.610365 -15.771291 2.095250 30.393912 0.002187 -3.729892 9.500526 -0.318170 0.054801 -0.113981 0.000000 0.000000 0.000000 0.000000 0.000000 0.000000 0.000000 
3.029888 16.664106 4.581097 6.452535 35.068141 23.765392 -11.437954 2.234469 -4.344590 -1.259644 16.181149 -14.788134 -0.748610 2.404783 39.663038 0.943852 -1.806034 20.663666 -1.293900 -0.000000 -87.395500 8.869942 0.831752 -0.761301 13.959817 -0.982985 -46.571148 2.153482 -2.017803 31.754566 -3.142665 -10.246665 -14.124091 -179.592900 -0.000000 -2.035300 5.441366 -1.707783 9.638798 0.082456 -1.530758 -0.027928 -6.598535 -1.554125 2.180965 9.182259 4.504764 6.175297 -4.778805 -0.398664 3.137262 0.000000 0.000000 0.000000 -2.146786 -7.540647 2.334779 -20.951300 -34.917862 -9.435427 -1.837495 -35.640781 -0.035295 8.166486 -3.477865 -0.274784 -0.135235 0.314089 -0.000000 0.000000 0.000000 0.000000 0.000000 0.000000 0.000000 20.222237 -0.781216 0.140143 44.318951 16.552649 -16.655315 2.106047 29.424553 0.001734 -4.110786 9.324274 -0.343876 0.056766 -0.111769 -0.000000 0.000000 0.000000 0.000000 0.000000 0.000000 0.000000 
3.069898 16.657058 4.714527 6.205492 34.910686 23.550764 -11.527954 2.153806 -4.211277 -0.526707 15.521344 -15.229093 -0.643646 2.482759 41.144994 0.995900 -2.858135 22.035619 -1.869600 0.000000 -84.661100 8.779310 0.778285 -0.990394 14.548125 -1.225672 -46.251321 2.226705 -2.098990 32.746540 -3.119313 -9.869225 -15.304011 -179.319200 0.000000 -2.599400 5.773969 -1.684395 9.795862 0.152961 -1.507383 -0.007888 -6.598705 -1.535476 2.153830 9.441948 4.847865 6.337381 -4.742263 -0.396926 3.180224 0.000000 0.000000 0.000000 -2.235071 -7.510376 2.298641 -22.112704 -34.713926 -8.557612 -1.856749 -36.263460 -0.035361 8.316982 -3.508559 -0.281870 -0.137629 0.310623 -0.000000 0.000000 0.000000 0.000000 0.000000 0.000000 0.000000 20.260706 -0.470303 0.151293 44.720982 16.553376 -17.560062 2.115624 28.352214 0.001194 -4.531164 9.079178 -0.368783 0.058840 -0.109203 0.000000 0.000000 0.000000 0.000000 0.000000 0.000000 0.000000 
3.106278 16.652771 4.848146 5.999223 34.750906 23.374969 -11.586541 2.074340 -4.075301 0.108283 14.764422 -15.697917 -0.547182 2.557526 42.606057 1.046903 -3.660413 23.095847 -2.342301 -0.000000 -81.231100 8.706033 0.731109 -1.207084 15.079684 -1.475753 -45.831420 2.300731 -2.150450 33.478220 -3.100725 -9.514503 -16.409001 -179.075201 0.000000 -3.056300 6.030166 -1.662592 9.937623 0.208104 -1.484903 0.011689 -6.593985 -1.516765 2.136804 9.750067 5.179668 6.505862 -4.695193 -0.394822 3.224782 0.000000 0.000000 0.000000 -2.323735 -7.477427 2.261010 -23.282489 -34.529106 -7.594016 -1.880562 -36.859882 -0.034970 8.395731 -3.532029 -0.286053 -0.139785 0.306575 -0.000000 0.000000 0.000000 0.000000 0.000000 0.000000 0.000000 20.295449 -0.164664 0.157554 45.220636 16.632775 -18.460369 2.123863 27.194059 0.000581 -4.983405 8.772093 -0.391591 0.060947 -0.106326 -0.000000 0.000000 0.000000 0.000000 0.000000 0.000000 0.000000 
3.139226 16.651005 4.982223 5.845448 34.585445 23.246531 -11.614715 1.998373 -3.941212 0.629599 13.936495 -16.198296 -0.455777 2.629910 44.037180 1.094607 -4.122152 23.801134 -2.642900 -0.000000 -77.337801 8.653221 0.691258 -1.405328 15.534148 -1.721655 -45.334025 2.370471 -2.176831 33.977906 -3.085455 -9.192285 -17.394767 -178.867499 -0.000000 -3.404100 6.202787 -1.641513 10.058487 0.246326 -1.462795 0.029175 -6.585361 -1.497361 2.129004 10.099555 5.493345 6.677213 -4.639378 -0.392469 3.270007 0.000000 0.000000 0.000000 -2.419467 -7.450167 2.225313 -24.445228 -34.347167 -6.547275 -1.910373 -37.437962 -0.033992 8.376048 -3.548676 -0.286234 -0.141500 0.301836 -0.000000 0.000000 0.000000 0.000000 0.000000 0.000000 0.000000 20.328669 0.131219 0.159729 45.812535 16.781371 -19.335838 2.130846 25.975752 -0.000096 -5.453616 8.413506 -0.410901 0.062983 -0.103249 -0.000000 0.000000 0.000000 0.000000 0.000000 0.000000 0.000000 
